<svg xmlns="http://www.w3.org/2000/svg" version="1.1" xmlns:xlink="http://www.w3.org/1999/xlink" xmlns:svgjs="http://svgjs.dev/svgjs" width="1440" height="560" preserveAspectRatio="none" viewBox="0 0 1440 560"><g mask="url(&quot;#SvgjsMask1006&quot;)" fill="none"><path d="M642.86 609.16C779.18 546.8 712.97 117.07 978.87 112.54 1244.77 108.01 1478.37 268.31 1650.88 269.34" stroke="rgba(255, 255, 255, 1)" stroke-width="2"></path><path d="M507.41 635.91C658.1 578.66 673.9 137.85 897.86 122.77 1121.82 107.69 1093.08 192.77 1288.31 192.77 1483.54 192.77 1579.59 123.05 1678.76 122.77" stroke="rgba(255, 255, 255, 1)" stroke-width="2"></path><path d="M672.31 643.45C808.12 625.16 859.29 326.63 1107.93 310.75 1356.57 294.87 1428.29 161.68 1543.55 159.55" stroke="rgba(255, 255, 255, 1)" stroke-width="2"></path><path d="M524.5 652.04C662.43 579.05 588.34 126.62 850.97 120 1113.6 113.38 1336.36 270.22 1503.91 271.2" stroke="rgba(255, 255, 255, 1)" stroke-width="2"></path><path d="M768.94 590.29C904.73 507.02 832.86 37.03 1077.21 32.68 1321.56 28.33 1528.33 269.26 1693.75 273.48" stroke="rgba(255, 255, 255, 1)" stroke-width="2"></path></g><defs><mask id="SvgjsMask1006"><rect width="1440" height="560" fill="#ffffff"></rect></mask></defs></svg>